inDegrees=yes
name=ik_lifting_orientations
DataType=double
version=3
OpenSimVersion=4.5-2024-01-10-34fd6af
endheader
time	pelvis_tilt	pelvis_list	pelvis_rotation	pelvis_tx	pelvis_ty	pelvis_tz	hip_flexion_r	hip_adduction_r	hip_rotation_r	knee_angle_r	knee_angle_r_beta	ankle_angle_r	subtalar_angle_r	mtp_angle_r	hip_flexion_l	hip_adduction_l	hip_rotation_l	knee_angle_l	knee_angle_l_beta	ankle_angle_l	subtalar_angle_l	mtp_angle_l	lumbar_extension	lumbar_bending	lumbar_rotation	arm_flex_r	arm_add_r	arm_rot_r	elbow_flex_r	pro_sup_r	wrist_flex_r	wrist_dev_r	arm_flex_l	arm_add_l	arm_rot_l	elbow_flex_l	pro_sup_l	wrist_flex_l	wrist_dev_l
2.32	-1.378582683026097	3.984901368522368	-127.0187628919363	0	0.9399999998679526	0	45.26843103290091	-10.07108996840604	0	59.88355196687035	1.045165149611014	-5.022447121244764	0	0	45.26843103290091	-10.07108996840604	0	59.88355196687035	1.045165149611014	-5.022447121244764	0	0	-3.122238936308094	0.7560740040563346	21.93182360278847	125.7185640685785	48.58545359905212	-3.632298420457628	0.006469230940311033	1.31352658962765	0	0	0	-12.86607356671283	0	88.71126641141264	1.31352658962765	0	0
2.33	-1.385533867293098	3.976277807338672	-126.9568001917516	0	0.9399999998679526	0	45.26827081569461	-10.07094119463397	0	59.88360641486214	1.045166099907742	-5.022385808051719	0	0	45.26827081569461	-10.07094119463397	0	59.88360641486214	1.045166099907742	-5.022385808051719	0	0	-2.915195728211688	0.9141602267285237	22.05288494394853	127.6120366994382	49.49005067429559	-4.952661919932194	0.006431945043967284	1.312981632869696	0	0	0	-12.86672444053965	0	88.71180100583312	1.312981632869696	0	0
2.34	-1.385931779468368	3.9241613596617	-126.7714975961727	0	0.9399999998679526	0	45.26807023117055	-10.07075523909817	0	59.88367458900028	1.045167289770917	-5.022309225256651	0	0	45.26807023117055	-10.07075523909817	0	59.88367458900028	1.045167289770917	-5.022309225256651	0	0	-2.627213087097539	1.055463677334691	21.86320782427104	128.9521355326617	49.9498575276881	-6.175840229518353	0.006553528883719125	1.312299242202651	0	0	0	-12.86753955132661	0	88.71247042086665	1.312299242202651	0	0
2.35	-1.419516305485544	3.792832583883218	-126.5168426817013	0	0.9399999998679526	0	45.2678697946396	-10.07056982349573	0	59.88374274017355	1.04516847923328	-5.022232930349739	0	0	45.2678697946396	-10.07056982349573	0	59.88374274017355	1.04516847923328	-5.022232930349739	0	0	-2.240224173301845	1.267059240422908	21.28580429518565	129.6983433940092	50.47501040584739	-7.010555581687931	0.006834504331426023	1.311617136378616	0	0	0	-12.86835449892607	0	88.71313955648249	1.311617136378616	0	0
2.36	-1.458778708795572	3.673243285726822	-126.4602177999108	0	0.9399999998679526	0	45.26766769735191	-10.07038316198476	0	59.88381144951714	1.045169678437552	-5.022156179498602	0	0	45.26766769735191	-10.07038316198476	0	59.88381144951714	1.045169678437552	-5.022156179498602	0	0	-1.850703262350396	1.470818027848584	20.90197147895089	131.4082555466515	51.41384226624324	-8.764994453061538	0.006922279945149113	1.310929290958718	0	0	0	-12.86917634641017	0	88.71381432256081	1.310929290958718	0	0
2.37	-1.495302286034918	3.5616718462739	-126.4046386911159	0	0.9399999998679526	0	45.26743129028331	-10.07016518481806	0	59.88389181496287	1.045171081079185	-5.022066625426809	0	0	45.26743129028331	-10.07016518481806	0	59.88389181496287	1.045171081079185	-5.022066625426809	0	0	-1.691629662525574	1.587004251523182	20.72497053934673	133.1121808654889	52.28193276012111	-10.20022470037918	0.007058966519244466	1.310124557632799	0	0	0	-12.87013790837108	0	88.71460375393437	1.310124557632799	0	0
2.38	-1.544485867398485	3.382718926669968	-126.3224428595866	0	0.9399999998679526	0	45.26722866377377	-10.06997892623404	0	59.88396076552615	1.045172284493535	-5.021990184622076	0	0	45.26722866377377	-10.06997892623404	0	59.88396076552615	1.045172284493535	-5.021990184622076	0	0	-1.530287477497663	1.686816404152379	20.18392913340149	134.5030597221822	52.94472030150006	-11.58374128263985	0.007357522308930877	1.309434424437197	0	0	0	-12.87096288289487	0	88.7152807643064	1.309434424437197	0	0
2.39	-1.604402455420953	3.203295060495048	-126.2587799775908	0	0.9399999998679526	0	45.26700670607445	-10.06977545380518	0	59.88403634971102	1.045173603686424	-5.021906762875629	0	0	45.26700670607445	-10.06977545380518	0	59.88403634971102	1.045173603686424	-5.021906762875629	0	0	-0.9071057937158954	1.978856476660473	18.59087113909441	137.4047225337453	54.5195458389296	-15.22953889444638	0.007455345685406559	1.308678101636424	0	0	0	-12.87186727899366	0	88.7160227057074	1.308678101636424	0	0
2.4	-1.670470460515323	2.969402866355337	-126.3325823797437	0	0.9399999998679526	0	45.26676166316817	-10.06955093876541	0	59.88411970355464	1.045175058485439	-5.02181476925718	0	0	45.26676166316817	-10.06955093876541	0	59.88411970355464	1.045175058485439	-5.02181476925718	0	0	-0.8044082039452086	2.044811696075231	18.30108437702506	139.6821264964061	55.34434384600925	-17.3689903177567	0.007609810784079939	1.307843312094261	0	0	0	-12.87286523960814	0	88.7168416218091	1.307843312094261	0	0
2.41	-1.738759750050654	2.785146552554581	-126.3247479417684	0	0.9399999998679526	0	45.26653556422673	-10.06934432024421	0	59.88419665113646	1.045176401474093	-5.021730195654436	0	0	45.26653556422673	-10.06934432024421	0	59.88419665113646	1.045176401474093	-5.021730195654436	0	0	-0.6594015420060455	2.168163910471162	18.01191174655447	141.2553839744345	55.91580818349657	-19.02156681827862	0.007955864270635734	1.307072761887061	0	0	0	-12.87378664497175	0	88.71759752009253	1.307072761887061	0	0
2.42	-1.829459208795586	2.488926952387602	-126.259211950889	0	0.9399999998679526	0	45.26632675609857	-10.06915399558072	0	59.884267756679	1.045177642499927	-5.02165236812843	0	0	45.26632675609857	-10.06915399558072	0	59.884267756679	1.045177642499927	-5.02165236812843	0	0	-0.1603065819208934	2.446163294974633	17.97280631989179	141.3090757188713	55.91257825611851	-19.7529105361486	0.00850569965212682	1.306360844450483	0	0	0	-12.87463818690672	0	88.71829590051242	1.306360844450483	0	0
2.43	-1.915195493719851	2.251307612028262	-126.3091328287493	0	0.9399999998679526	0	45.26613463445767	-10.06897912231681	0	59.88433316201609	1.045178784038408	-5.021580910351628	0	0	45.26613463445767	-10.06897912231681	0	59.88433316201609	1.045178784038408	-5.021580910351628	0	0	-0.01891244657395081	2.584473587395792	17.97119940670474	142.666500226911	56.20234491626259	-21.16777803518645	0.008903866558377577	1.305705777544348	0	0	0	-12.87542172356541	0	88.7189385114103	1.305705777544348	0	0
2.44	-1.981752873539281	2.074057268402872	-126.365461381788	0	0.9399999998679526	0	45.26592565318658	-10.06878918944762	0	59.88440429586788	1.045180025558331	-5.021503356064906	0	0	45.26592565318658	-10.06878918944762	0	59.88440429586788	1.045180025558331	-5.021503356064906	0	0	0.1888455415539291	2.728457169031415	17.98509659695222	144.1102127127364	56.7002367944944	-22.55932247948286	0.009349808295798803	1.30499314838352	0	0	0	-12.87627414065192	0	88.71963759002888	1.30499314838352	0	0
2.45	-2.044217749825811	1.895686468228448	-126.4295221391872	0	0.9399999998679526	0	45.26459861982711	-10.0671757538613	0	59.88479749415501	1.045186888163055	-5.020804602662558	0	0	45.26459861982711	-10.0671757538613	0	59.88479749415501	1.045186888163055	-5.020804602662558	0	0	0.4523142639879599	2.898372039979784	17.97084788751579	148.0344368969481	57.69875466319817	-25.8395833002906	0.01081569386345996	1.300829494095014	0	0	0	-12.88091924281938	0	88.72372206035678	1.300829494095014	0	0
2.46	-2.130548350139859	1.666047022272964	-126.4842333437634	0	0.9399999998679526	0	45.26029177759205	-10.06331895028475	0	59.88622475000049	1.045211798476827	-5.019256925284415	0	0	45.26029177759205	-10.06331895028475	0	59.88622475000049	1.045211798476827	-5.019256925284415	0	0	0.6586506486489087	3.057784766401567	17.99334815437042	152.9829645540093	58.40998138618694	-30.14318094634503	0.01238711377214332	1.286248099786045	0	0	0	-12.89822159350864	0	88.73802618990551	1.286248099786045	0	0
2.47	-2.232789162221919	1.429451270002884	-126.6147565073041	0	0.9399999998679526	0	45.26059153898387	-10.06339986189213	0	59.88606575386624	1.045209023470786	-5.019276064249716	0	0	45.26059153898387	-10.06339986189213	0	59.88606575386624	1.045209023470786	-5.019276064249716	0	0	0.8606882568552668	3.211226171044944	18.09715111008553	158.4526465091044	58.82044410081345	-34.83204026735844	0.01479513166937914	1.287500216437773	0	0	0	-12.89648823767131	0	88.73679787483843	1.287500216437773	0	0
